<svg id="Layer_1" data-name="Layer 1" xmlns="http://www.w3.org/2000/svg" viewBox="0 0 718.67 574.19"><defs><style>.cls-1{fill:#1a1a1a;}.cls-2{fill:#006837;}.cls-3{fill:#ed1c24;}</style></defs><title>UrlBase64</title><path class="cls-1" d="M462.92,663c13.79-11.57,22.25-27.62,23-45.13l.71-115.08-50.12.22-1.91,115.09c-.07,12-11.47,21.56-25.19,21.12l-308.47,1.85c-14.32.06-25.6-9.39-24.93-20.91l.3-144.6c.07-11,12.06-21.07,25.19-21.12l130.07-.57.26-42-130.06-.43a84.53,84.53,0,0,0-53.82,19.25c-14.39,12.07-22.85,28.12-23,45.13l-.3,144.6c-.22,35,33.61,63.4,75.38,63.22l309.06-1.35C430,681.65,449.13,674.57,462.92,663Z" transform="translate(-24.67 -109.4)"/><path class="cls-1" d="M281.41,589.24l50.12-.22.71-115.08c.07-12,11.47-21.56,25.19-21.12l309.06-1.35q10.74,0,17.86,5.93c4.75,4,7.7,9.47,7.07,15l-.3,144.6c-.07,12-11.47,21.56-25.19,21.12l-130.07.57-.26,42,130.07-.57a83.67,83.67,0,0,0,53.82-19.25c13.79-11.57,22.25-27.62,23-45.13l.89-144.1c.22-35-33.61-63.4-75.38-63.22l-309.66,1.85c-41.77.18-76,28.85-76.17,63.88Z" transform="translate(-24.67 -109.4)"/><path class="cls-2" d="M46.61,364.72V111.43h126c49.65,0,74.64,10.13,74.64,65.86,0,29-5.4,48.63-36.14,56.06v1.35c35.46,4.05,42.22,27.36,42.22,59.44,0,56.06-23,70.58-76.33,70.58ZM95.25,217.47h69.91c27.36,0,33.43-8.44,33.43-35.46s-10.81-29-34.79-29H95.25Zm0,105.71h66.53c29,0,42.89-2,42.89-33.1,0-27.69-6.08-35.8-34.79-35.8H95.25Z" transform="translate(-24.67 -109.4)"/><path class="cls-3" d="M287.41,194.17c.68-71.26,29.38-84.77,96.59-84.77,57.75,0,95.24,2.7,94.56,72.61H432.63c0-32.08-13.17-32.76-48.63-32.76-43.23,0-50.66,2.7-50.66,45.25v39.85H334c7.77-21.61,32.08-24.32,56.4-24.32,67.54,0,90.17,8.78,90.17,73.62,0,68.9-24,83.08-96.59,83.08-75.31,0-96.59-12.5-96.59-99Zm45.93,87.13c0,40.19,5.4,45.59,50.66,45.59,42.21,0,50.66-.34,50.66-39.85,0-36.14-9.79-37.15-50.66-37.15C347.53,249.9,333.34,249.9,333.34,281.3Z" transform="translate(-24.67 -109.4)"/><path class="cls-3" d="M698.76,273.87h29.72v36.81H698.76v54H652.83v-54H515v-53L627.16,111.43h71.6ZM652.83,146.55h-1.35L553.54,273.87h99.29Z" transform="translate(-24.67 -109.4)"/></svg>